<?xml version="1.0" encoding="utf-8"?>
<!-- Generator: Adobe Illustrator 27.7.0, SVG Export Plug-In . SVG Version: 6.00 Build 0)  -->
<svg version="1.1" id="Layer_1" xmlns="http://www.w3.org/2000/svg" xmlns:xlink="http://www.w3.org/1999/xlink" x="0px" y="0px"
	 viewBox="0 0 139.35 139.35" style="enable-background:new 0 0 139.35 139.35;" xml:space="preserve">
<style type="text/css">
	.st0{fill:#FFFFFF;}
	.st1{fill:#00AC5B;}
	.st2{clip-path:url(#SVGID_00000026862401547291381060000002390475050057871784_);}
	.st3{fill:#44B87B;}
	.st4{fill:none;}
	.st5{fill:#ECE8CF;}
	.st6{fill:#004B41;}
</style>
<g>
	<g>
		<g>
			
				<rect x="22.93" y="22.93" transform="matrix(0.7071 -0.7071 0.7071 0.7071 -28.8606 69.6758)" class="st0" width="93.48" height="93.48"/>
			<path class="st0" d="M69.68,7.15l62.53,62.53L69.68,132.2L7.15,69.68L69.68,7.15 M69.68,0L66.1,3.57L3.57,66.1L0,69.68l3.57,3.57
				l62.53,62.53l3.57,3.57l3.57-3.57l62.53-62.53l3.57-3.57l-3.57-3.57L73.25,3.57L69.68,0L69.68,0z"/>
		</g>
		<g>
			
				<rect x="22.93" y="22.93" transform="matrix(0.7071 -0.7071 0.7071 0.7071 -28.8606 69.6758)" class="st0" width="93.48" height="93.48"/>
			<path class="st0" d="M69.68,7.15l62.53,62.53L69.68,132.2L7.15,69.68L69.68,7.15 M69.68,0L66.1,3.57L3.57,66.1L0,69.68l3.57,3.57
				l62.53,62.53l3.57,3.57l3.57-3.57l62.53-62.53l3.57-3.57l-3.57-3.57L73.25,3.57L69.68,0L69.68,0z"/>
		</g>
		<g>
			
				<rect x="22.93" y="22.93" transform="matrix(0.7071 -0.7071 0.7071 0.7071 -28.8606 69.6758)" class="st0" width="93.48" height="93.48"/>
			<path class="st0" d="M69.68,7.15l62.53,62.53L69.68,132.2L7.15,69.68L69.68,7.15 M69.68,0L66.1,3.57L3.57,66.1L0,69.68l3.57,3.57
				l62.53,62.53l3.57,3.57l3.57-3.57l62.53-62.53l3.57-3.57l-3.57-3.57L73.25,3.57L69.68,0L69.68,0z"/>
		</g>
		<g>
			<rect x="16.68" y="41.15" class="st0" width="106.02" height="57.05"/>
			<path class="st0" d="M120.17,43.68v52H19.2v-52H120.17 M125.22,38.62h-5.05H19.2h-5.05v5.05v52v5.05h5.05h100.96h5.05v-5.05v-52
				V38.62L125.22,38.62z"/>
		</g>
	</g>
	<g>
		<g>
			
				<rect x="25.46" y="25.46" transform="matrix(0.7071 -0.7071 0.7071 0.7071 -28.8607 69.6758)" class="st1" width="88.43" height="88.43"/>
			<g>
				<defs>
					
						<rect id="SVGID_1_" x="25.46" y="25.46" transform="matrix(0.7071 -0.7071 0.7071 0.7071 -28.8607 69.6758)" width="88.43" height="88.43"/>
				</defs>
				<clipPath id="SVGID_00000124127390109845511510000009954079381263346848_">
					<use xlink:href="#SVGID_1_"  style="overflow:visible;"/>
				</clipPath>
				<g style="clip-path:url(#SVGID_00000124127390109845511510000009954079381263346848_);">
					<polyline class="st3" points="55.58,3.27 55.58,136.08 59.56,136.08 59.56,3.27 55.58,3.27 					"/>
					<polygon class="st3" points="120.16,3.27 120.16,136.08 124.13,136.08 124.13,3.27 120.16,3.27 					"/>
					<polyline class="st3" points="31.36,3.27 31.36,136.08 35.34,136.08 35.34,3.27 31.36,3.27 					"/>
					<polyline class="st3" points="95.94,3.27 95.94,136.08 99.92,136.08 99.92,3.27 95.94,3.27 					"/>
					<polyline class="st3" points="63.65,3.27 63.65,136.08 67.63,136.08 67.63,3.27 63.65,3.27 					"/>
					<polygon class="st3" points="128.23,3.27 128.23,136.08 132.2,136.08 132.2,3.27 128.23,3.27 					"/>
					<polyline class="st3" points="39.44,3.27 39.44,136.08 43.41,136.08 43.41,3.27 39.44,3.27 					"/>
					<polyline class="st3" points="104.01,3.27 104.01,136.08 107.99,136.08 107.99,3.27 104.01,3.27 					"/>
					<polygon class="st3" points="7.15,3.27 7.15,136.08 11.12,136.08 11.12,3.27 7.15,3.27 					"/>
					<polyline class="st3" points="71.72,3.27 71.72,136.08 75.7,136.08 75.7,3.27 71.72,3.27 					"/>
					<polygon class="st3" points="15.22,3.27 15.22,136.08 19.19,136.08 19.19,3.27 15.22,3.27 					"/>
					<polyline class="st3" points="79.8,3.27 79.8,136.08 83.77,136.08 83.77,3.27 79.8,3.27 					"/>
					<polyline class="st3" points="47.51,3.27 47.51,136.08 51.48,136.08 51.48,3.27 47.51,3.27 					"/>
					<polyline class="st3" points="112.08,3.27 112.08,136.08 116.06,136.08 116.06,3.27 112.08,3.27 					"/>
					<polyline class="st3" points="23.29,3.27 23.29,136.08 27.27,136.08 27.27,3.27 23.29,3.27 					"/>
					<polyline class="st3" points="87.87,3.27 87.87,136.08 91.84,136.08 91.84,3.27 87.87,3.27 					"/>
				</g>
			</g>
			<g>
				
					<rect x="25.46" y="25.46" transform="matrix(0.7071 -0.7071 0.7071 0.7071 -28.8607 69.6758)" class="st4" width="88.43" height="88.43"/>
			</g>
		</g>
		<g>
			<rect x="20.94" y="45.41" class="st5" width="97.49" height="48.53"/>
			<path class="st1" d="M116.69,47.15V92.2H22.68V47.15H116.69 M120.17,43.68H19.2v52h100.96V43.68L120.17,43.68z"/>
		</g>
		<g>
			<g>
				<path class="st6" d="M84.84,87.84l0.13-1.32h1.28l0.13,1.32h1.72l0,0c0.47,0,0.86-0.39,0.86-0.86c0-0.07-0.01-0.14-0.03-0.21
					l-0.97-7.62h-0.84l0,0h-2.86l0,0h-0.21c-0.01,0-0.02,0-0.03,0c-0.01,0-0.01,0-0.02,0h-0.03l-0.01,0
					c-0.42,0.02-0.77,0.35-0.81,0.77l-0.9,6.95l0,0c0,0.04-0.01,0.07-0.01,0.11c0,0.47,0.38,0.86,0.86,0.86l0,0H84.84z M85.18,84.36
					l0.29-3.03h0.27l0.3,3.03H85.18z"/>
				<path class="st6" d="M78.33,81.33v-0.01V81.33h1.85c0.48,0,0.86-0.38,0.86-0.86v-1.31h-2.7l-0.01,0.01v-0.01h-0.38h-1.84
					c0,0,0,0,0,0c-0.47,0-0.86,0.39-0.86,0.86v6.98c0,0.47,0.39,0.86,0.86,0.86h1.85h0.38v-0.01l0.01,0.01h2.7v-1.32
					c0-0.47-0.39-0.86-0.86-0.86h-1.84l-0.01,0.01v-0.01h-0.38v-4.35H78.33z"/>
				<path class="st6" d="M103.52,79.15C103.52,79.15,103.51,79.15,103.52,79.15h-1.48h-0.37h-1.09h-0.37h-2.34v8.69h2.53h0.18h1.09
					h0.18h1.67c0.48,0,0.86-0.39,0.86-0.86v-6.98C104.38,79.54,103.99,79.15,103.52,79.15z M100.58,85.67v-4.35h1.09v4.35H100.58z"
					/>
				<path class="st6" d="M95.88,85.01c0.44-0.04,0.79-0.41,0.79-0.86v-0.7v-0.61v-1.52v-0.61v-0.7c0-0.47-0.38-0.86-0.86-0.86h-1.85
					l0,0.02v-0.02h-1.1h-1.85h-0.86v8.69h2.71l0,0v-2.83h0.41l0.86,2.23c0.11,0.35,0.43,0.6,0.82,0.6H97L95.88,85.01z M93.96,82.84
					L93.96,82.84h-1.1v-1.52h1.1v-0.02l0,0.02V82.84z"/>
				<path class="st6" d="M112.07,84.03c0-0.36-0.22-0.67-0.55-0.8l0,0l-3.24-1.73v-0.17h2.93c0.47,0,0.86-0.39,0.86-0.86l0,0l0,0
					v-1.31h-0.86h-2.93h-0.46l0,0h-1.39h0c-0.47,0-0.86,0.38-0.86,0.86v2.28l0,0v0.3c0,0.33,0.18,0.61,0.46,0.76l0,0l3.34,1.78v0.54
					h-2.94l0,0h-0.86v1.32c0,0.47,0.38,0.86,0.86,0.86h2.94h0.55h1.3c0.47,0,0.86-0.39,0.86-0.86v-2.32l0,0V84.03z"/>
			</g>
			<g>
				<path class="st6" d="M48.35,79.15L48.35,79.15h-1.85v0.02l-0.01-0.02h-1.08h-1.84h0c-0.47,0-0.86,0.39-0.86,0.86v6.98
					c0,0.47,0.39,0.86,0.86,0.86h1.85h1.08l0.01-0.01v0.01h1.85c0.47,0,0.86-0.39,0.86-0.86v-6.98
					C49.21,79.54,48.82,79.15,48.35,79.15z M45.41,85.67v-4.35h1.08v4.35H45.41z"/>
				<path class="st6" d="M40.64,79.15h-1.85l0,0.01v-0.01h-1.1h-1.84h-0.86v7.83c0,0.47,0.38,0.86,0.86,0.86c0,0,0,0,0,0h1.84v-0.86
					v-1.97h1.1v-0.01l0,0.01h1.85c0.48,0,0.86-0.39,0.86-0.86v-0.7v-0.61v-1.52v-0.61v-0.7C41.5,79.54,41.11,79.15,40.64,79.15z
					 M38.79,82.84L38.79,82.84L38.79,82.84h-1.11v-1.52h1.1v-0.01l0,0.01V82.84z"/>
				<path class="st6" d="M56.14,85.01c0.44-0.04,0.79-0.41,0.79-0.86v-0.7v-0.61v-1.52v-0.61v-0.7c0-0.47-0.38-0.86-0.85-0.86h-1.85
					l0,0.02v-0.02h-1.1h-1.85h-0.86v8.69h2.71l0,0v-2.83h0.41l0.86,2.23c0.11,0.35,0.43,0.6,0.82,0.6h2.06L56.14,85.01z
					 M54.22,82.84L54.22,82.84h-1.1v-1.52h1.1v-0.02l0,0.02V82.84z"/>
				<path class="st6" d="M33.77,84.03c0-0.36-0.22-0.67-0.55-0.8l0,0l-3.24-1.73v-0.17h2.93c0.47,0,0.86-0.39,0.86-0.86l0,0l0,0
					v-1.31h-0.86h-2.93h-0.46l0,0h-1.39h0c-0.47,0-0.86,0.38-0.86,0.86v2.28l0,0v0.3c0,0.33,0.18,0.61,0.46,0.76l0,0l3.34,1.78v0.54
					h-2.94l0,0h-0.86v1.32c0,0.47,0.38,0.86,0.86,0.86h2.94h0.55h1.3c0.47,0,0.86-0.39,0.86-0.86v-2.32l0,0V84.03z"/>
				<path class="st6" d="M71.68,84.03c0-0.36-0.22-0.67-0.55-0.8l0,0l-3.24-1.73v-0.17h2.93c0.47,0,0.86-0.39,0.86-0.86l0,0l0,0
					v-1.31h-0.86h-2.93h-0.46l0,0h-1.39h0c-0.47,0-0.86,0.38-0.86,0.86v2.28l0,0v0.3c0,0.33,0.18,0.61,0.46,0.76l0,0l3.34,1.78v0.54
					h-2.94l0,0h-0.86v1.32c0,0.47,0.38,0.86,0.86,0.86h2.94h0.55h1.3c0.47,0,0.86-0.39,0.86-0.86v-2.32l0,0V84.03z"/>
				<path class="st6" d="M61.5,79.15L61.5,79.15L61.5,79.15h-0.38l0,0h-0.49c0,0,0,0,0,0h-2.71v0.86v0.45v0.86h1.85v5.66
					c0,0.47,0.39,0.86,0.86,0.86h1.85v-0.86v-5.66h0.88c0.47,0,0.86-0.39,0.86-0.86v-1.31H61.5L61.5,79.15z"/>
			</g>
		</g>
		<g>
			<path class="st6" d="M62.66,74.14L63,70.71h3.34l0.34,3.43h4.48l0,0c1.23,0,2.23-1,2.23-2.23c0-0.19-0.03-0.37-0.07-0.55
				l-2.54-19.85h-2.19l0,0h-7.46l0,0h-0.54c-0.03,0-0.06,0-0.08,0c-0.02,0-0.03,0-0.05,0H60.4l-0.01,0c-1.1,0.06-2,0.92-2.1,2.01
				l-2.34,18.1l0,0c-0.01,0.1-0.02,0.19-0.02,0.29c0,1.23,1,2.23,2.23,2.23l0,0H62.66z M63.54,65.06l0.77-7.89h0.71l0.78,7.89H63.54
				z"/>
			<path class="st6" d="M29.5,74.14h2.25h2.57h2.83h2.21h4.84V61.6h-7.05v6.88h-2.83V57.16h7.65c1.23,0,2.24-1,2.24-2.24v-3.42
				h-2.24h-4.81h-2.83l0,0h-4.81c0,0-0.01,0-0.01,0c-1.23,0-2.23,1-2.23,2.24v18.17C27.27,73.14,28.27,74.14,29.5,74.14z"/>
			<path class="st6" d="M48.94,51.51c-1.24,0-2.24,1-2.24,2.24v6.63v4.89v6.64v2.23h4.8c0,0,0.01,0,0.01,0c1.24,0,2.24-1,2.24-2.23
				v-6.64v-4.89v-6.63v-2.24H48.94C48.94,51.51,48.94,51.51,48.94,51.51z"/>
			<path class="st6" d="M91.6,51.51c-0.01,0-0.01,0-0.01,0h-4.81v7.75l-2.09-3.87v0l-1.43-2.69l-0.04-0.02
				c-0.05-0.1-0.11-0.19-0.17-0.27c-0.41-0.54-1.07-0.89-1.79-0.89h-5.7v20.4c0,1.23,1,2.23,2.24,2.23h0h4.83v-7.75l2.06,3.87v0.02
				l1.45,2.68l0.05,0.02c0.04,0.1,0.1,0.19,0.17,0.27c0.41,0.55,1.06,0.89,1.79,0.89h5.68v-20.4C93.83,52.51,92.83,51.51,91.6,51.51
				z"/>
			<path class="st6" d="M105.02,51.51H105l0,0h-0.98l0,0h-1.29c0,0,0,0-0.01,0h-7.05v2.24v1.18v2.24h4.82v14.75
				c0,1.23,1,2.23,2.23,2.23h4.82v-2.23V57.16h2.28c1.23,0,2.24-1,2.24-2.24v-3.42H105.02L105.02,51.51z"/>
		</g>
	</g>
</g>
</svg>
